<svg id="Capa_1" enable-background="new 0 0 511.685 511.685" height="512" viewBox="0 0 511.685 511.685" width="512" xmlns="http://www.w3.org/2000/svg"><path d="m172.226 336.364v21.884l6.586 25.274c.997 3.827 4.453 6.498 8.408 6.498h136.818c3.955 0 7.411-2.671 8.408-6.498l6.586-25.274v-21.884z" fill="#c5e1ff"/><path d="m232.056 369.904h103.939l3.037-11.656v-21.884h-166.806v21.884l6.586 25.274c.997 3.827 4.453 6.498 8.408 6.498h24.721c-.001-11.11 9.005-20.116 20.115-20.116z" fill="#b4d9fd"/><path d="m456.129 195.693v-58.903c0-8.353-6.772-15.125-15.125-15.125h-369.751c-8.353 0-15.125 6.772-15.125 15.125v99.939 121.519h45.903 259.702 94.396z" fill="#e5eef8"/><path d="m371.838 175.693c-16.6 0-30.105 13.505-30.105 30.105v152.45h20 94.396v-162.555-20z" fill="#d5e2f3"/><path d="m91.926 216.729h-35.797v20 121.519h45.903 20v-111.415c-.001-16.6-13.506-30.104-30.106-30.104z" fill="#d5e2f3"/><path d="m102.031 313.374h259.702l65.64-.498c2.079-.016 3.756-1.705 3.756-3.784v-113.399-44.536c0-2.09-1.694-3.784-3.784-3.784h-342.432c-2.09 0-3.784 1.694-3.784 3.784v85.571 73.034c0 2.105 1.718 3.805 3.823 3.784z" fill="#65daf9"/><path d="m371.838 175.693c-16.627 0-30.105 13.478-30.105 30.105v27.82c0 17.329-14.041 31.38-31.369 31.393l-80.802.061c-48.115.036-87.14-38.959-87.14-87.074v-30.625h-57.509c-2.09 0-3.784 1.694-3.784 3.784v85.571 73.034c0 2.105 1.718 3.805 3.823 3.784l17.08-.173h239.702 20l65.641-.498c.26-.002.513-.03.758-.082s.481-.127.706-.224c.45-.193.854-.471 1.194-.813.679-.684 1.098-1.626 1.098-2.666v-44.227-69.172-20h-59.293z" fill="#1acff8"/><path d="m91.926 216.729h-10.798v20 73.034c0 2.105 1.718 3.805 3.823 3.784l17.08-.173h20v-66.54c0-16.601-13.505-30.105-30.105-30.105z" fill="#19bff8"/><path d="m91.926 390.019h-74.321c-5.581 0-10.105-4.524-10.105-10.105v-133.08c0-5.581 4.524-10.105 10.105-10.105h74.321c5.581 0 10.105 4.524 10.105 10.105v133.081c0 5.58-4.524 10.104-10.105 10.104z" fill="#e5eef8"/><path d="m33.863 321.085v-74.252c0-5.581 4.524-10.105 10.105-10.105h-26.363c-5.581 0-10.105 4.524-10.105 10.105v74.252z" fill="#d5e2f3"/><path d="m7.5 263.474h94.531v85.869h-94.531z" fill="#05f2a7"/><path d="m33.863 263.565v-.092h-26.363v85.869h94.531v-17.609c-37.648.001-68.168-30.519-68.168-68.168z" fill="#13e29d"/><path d="m494.079 390.019h-122.241c-5.581 0-10.105-4.524-10.105-10.105v-174.116c0-5.581 4.524-10.105 10.105-10.105h122.241c5.581 0 10.105 4.524 10.105 10.105v174.116c0 5.581-4.524 10.105-10.105 10.105z" fill="#e5eef8"/><path d="m393.471 296.19v-90.392c0-5.581 4.524-10.105 10.105-10.105h-31.738c-5.581 0-10.105 4.524-10.105 10.105v90.392z" fill="#d5e2f3"/><path d="m361.733 231.039h142.451v115.521h-142.451z" fill="#05f2a7"/><path d="m393.294 251.137v-20.098h-31.561v115.521h142.451v-19.104h-34.572c-42.149-.001-76.318-34.169-76.318-76.319z" fill="#13e29d"/><path d="m494.079 188.193h-30.45v-51.403c0-12.476-10.149-22.625-22.625-22.625h-369.751c-12.475 0-22.625 10.149-22.625 22.625v92.438h-31.023c-9.708.001-17.605 7.898-17.605 17.605v133.081c0 9.708 7.897 17.605 17.605 17.605h74.321c9.708 0 17.605-7.897 17.605-17.605v-14.167h56.898l5.124 19.665c1.857 7.129 8.299 12.107 15.666 12.107h136.818c7.367 0 13.809-4.979 15.666-12.107l5.124-19.665h9.405v14.167c0 9.708 7.897 17.605 17.605 17.605h122.241c9.708 0 17.605-7.898 17.605-17.605v-174.116c.002-9.708-7.896-17.605-17.604-17.605zm-124.846 101.307c0-4.142-3.358-7.5-7.5-7.5s-7.5 3.358-7.5 7.5v16.374h-244.702v-59.041c0-9.708-7.897-17.605-17.605-17.605h-3.298v-74.356h335.001v33.32h-51.791c-9.708 0-17.605 7.897-17.605 17.605v53.703c0 4.142 3.358 7.5 7.5 7.5s7.5-3.358 7.5-7.5v-20.961h127.451v100.521h-127.451zm-354.233-18.526h79.531v70.869h-79.531zm481.685-65.176v17.741h-127.452v-17.741c0-1.437 1.168-2.605 2.605-2.605h122.241c1.437 0 2.606 1.168 2.606 2.605zm-433.056-69.008c0-4.205 3.42-7.625 7.625-7.625h369.751c4.204 0 7.625 3.42 7.625 7.625v51.403h-10v-40.82c0-4.142-3.358-7.5-7.5-7.5h-350.002c-4.142 0-7.5 3.358-7.5 7.5v81.856h-10v-92.439zm-46.024 107.439h74.321c1.437 0 2.605 1.168 2.605 2.605v9.14h-79.531v-9.14c0-1.437 1.168-2.605 2.605-2.605zm74.321 138.291h-74.321c-1.437 0-2.605-1.168-2.605-2.605v-23.072h79.531v23.072c0 1.436-1.168 2.605-2.605 2.605zm139.956-31.772c-4.142 0-7.5 3.358-7.5 7.5s3.358 7.5 7.5 7.5h97.445l-4.139 15.883c-.136.523-.609.889-1.15.889h-136.818c-.541 0-1.014-.366-1.15-.889l-4.138-15.883h19.951c4.142 0 7.5-3.358 7.5-7.5s-3.358-7.5-7.5-7.5h-92.351v-29.874h244.702v29.874zm262.197 31.772h-122.241c-1.437 0-2.605-1.169-2.605-2.605v-25.855h127.451v25.854c.001 1.437-1.168 2.606-2.605 2.606z"/><circle cx="432.959" cy="368.642" r="7.41"/><circle cx="54.766" cy="369.904" r="7.037"/><circle cx="256.129" cy="336.364" r="9.056"/><path d="m313.28 223.539c-4.142 0-7.5 3.358-7.5 7.5 0 27.653-22.498 50.151-50.151 50.151s-50.151-22.498-50.151-50.151 22.498-50.151 50.151-50.151c4.142 0 7.5-3.358 7.5-7.5s-3.358-7.5-7.5-7.5c-35.924 0-65.151 29.227-65.151 65.151s29.227 65.151 65.151 65.151 65.151-29.227 65.151-65.151c0-4.142-3.358-7.5-7.5-7.5z"/><path d="m219.911 231.039c0 4.142 3.358 7.5 7.5 7.5s7.5-3.358 7.5-7.5c0-11.424 9.294-20.718 20.718-20.718s20.718 9.294 20.718 20.718-9.294 20.718-20.718 20.718c-4.142 0-7.5 3.358-7.5 7.5s3.358 7.5 7.5 7.5c19.695 0 35.718-16.023 35.718-35.718s-16.023-35.718-35.718-35.718-35.718 16.023-35.718 35.718z"/><circle cx="255.629" cy="231.039" r="12.542"/><path d="m461.177 277.868c-4.142 0-7.5 3.358-7.5 7.5 0 11.424-9.294 20.718-20.718 20.718s-20.718-9.294-20.718-20.718 9.294-20.718 20.718-20.718c4.142 0 7.5-3.358 7.5-7.5s-3.358-7.5-7.5-7.5c-19.695 0-35.718 16.023-35.718 35.718s16.023 35.718 35.718 35.718 35.718-16.023 35.718-35.718c0-4.142-3.358-7.5-7.5-7.5z"/><circle cx="432.959" cy="285.367" r="12.542"/><path d="m76.237 298.908c-4.142 0-7.5 3.358-7.5 7.5 0 6.952-5.656 12.608-12.608 12.608-6.953 0-12.609-5.656-12.609-12.608s5.656-12.608 12.609-12.608c4.142 0 7.5-3.358 7.5-7.5s-3.358-7.5-7.5-7.5c-15.224 0-27.609 12.385-27.609 27.608s12.385 27.608 27.609 27.608c15.223 0 27.608-12.385 27.608-27.608 0-4.142-3.358-7.5-7.5-7.5z"/><circle cx="56.129" cy="306.408" r="6.439"/></svg>